<svg xmlns="http://www.w3.org/2000/svg" xmlns:xlink="http://www.w3.org/1999/xlink" width="1000" zoomAndPan="magnify" viewBox="0 0 750 749.999995" height="1000" preserveAspectRatio="xMidYMid meet" version="1.0"><defs><clipPath id="f7ace935d4"><path d="M 57.027344 10 L 657.777344 10 L 657.777344 750 L 57.027344 750 Z M 57.027344 10 " clip-rule="nonzero"/></clipPath></defs><g clip-path="url(#f7ace935d4)"><path fill="#31344b" d="M 561.691406 585.320312 C 567.289062 560.113281 562.625 534.902344 550.5 513.429688 C 538.371094 491.953125 518.78125 476.082031 495.460938 466.746094 C 516.917969 445.273438 533.707031 420.0625 543.96875 391.117188 L 568.222656 391.117188 C 599.941406 391.117188 626.058594 364.976562 626.058594 333.230469 C 626.058594 302.421875 600.871094 276.277344 570.089844 275.34375 C 612.066406 214.65625 630.722656 139.964844 626.992188 40.996094 C 626.992188 35.390625 623.261719 30.722656 618.597656 28.855469 C 613.933594 26.988281 608.335938 27.921875 603.671875 30.722656 C 568.222656 61.535156 515.050781 47.53125 453.484375 30.722656 C 366.730469 7.382812 259.453125 -20.628906 191.355469 101.683594 C 173.632812 102.617188 157.773438 111.019531 144.714844 126.890625 C 124.191406 152.101562 116.726562 191.316406 126.988281 221.191406 L 128.855469 225.859375 C 134.453125 243.601562 140.046875 260.40625 146.578125 274.410156 L 143.78125 274.410156 C 112.0625 274.410156 85.945312 300.554688 85.945312 332.296875 C 85.945312 364.042969 112.0625 390.183594 143.78125 390.183594 L 168.035156 390.183594 C 178.296875 419.128906 195.085938 445.273438 216.542969 465.8125 C 193.21875 475.148438 173.632812 491.953125 161.503906 512.496094 C 148.445312 534.902344 144.714844 560.113281 150.308594 584.386719 C 86.875 615.199219 57.027344 667.484375 57.027344 744.042969 L 57.027344 836.476562 C 57.027344 843.945312 63.554688 850.484375 71.019531 850.484375 L 643.78125 850.484375 C 651.246094 850.484375 657.777344 843.945312 657.777344 836.476562 L 657.777344 744.042969 C 654.976562 668.417969 624.195312 616.132812 561.691406 585.320312 Z M 411.503906 546.109375 C 411.503906 577.851562 380.722656 602.128906 354.601562 620.800781 C 328.484375 602.128906 297.699219 577.851562 297.699219 546.109375 L 297.699219 516.230469 C 315.421875 521.832031 335.011719 524.632812 354.601562 524.632812 C 374.191406 524.632812 393.78125 521.832031 411.503906 516.230469 Z M 597.140625 333.230469 C 597.140625 350.039062 584.082031 363.109375 567.289062 363.109375 L 550.5 363.109375 C 553.296875 350.972656 554.230469 337.898438 554.230469 324.828125 L 554.230469 304.289062 L 566.359375 304.289062 C 583.148438 303.355469 597.140625 316.425781 597.140625 333.230469 Z M 141.914062 363.109375 C 125.125 363.109375 112.0625 350.039062 112.0625 333.230469 C 112.0625 316.425781 125.125 303.355469 141.914062 303.355469 L 154.042969 303.355469 L 154.042969 323.894531 C 154.042969 336.964844 154.972656 350.039062 157.773438 362.175781 L 141.914062 362.175781 Z M 182.960938 323.894531 L 182.960938 300.554688 C 210.011719 294.953125 242.660156 286.546875 255.722656 237.996094 C 321.953125 259.472656 388.183594 259.472656 453.484375 237.996094 C 466.542969 286.546875 499.191406 294.953125 526.246094 300.554688 L 526.246094 323.894531 C 526.246094 419.128906 449.753906 496.625 354.601562 496.625 C 259.453125 496.625 182.960938 419.128906 182.960938 323.894531 Z M 626.992188 823.40625 L 82.210938 823.40625 L 82.210938 744.976562 C 82.210938 676.820312 107.398438 634.804688 164.300781 608.664062 C 205.347656 627.335938 246.394531 640.40625 288.371094 646.945312 L 288.371094 708.566406 C 288.371094 716.035156 294.902344 722.570312 302.363281 722.570312 C 309.824219 722.570312 316.355469 716.035156 316.355469 708.566406 L 316.355469 649.746094 C 329.414062 650.679688 341.542969 651.613281 354.601562 651.613281 C 367.664062 651.613281 380.722656 650.679688 392.847656 649.746094 L 392.847656 708.566406 C 392.847656 716.035156 399.378906 722.570312 406.839844 722.570312 C 414.304688 722.570312 420.835938 716.035156 420.835938 708.566406 L 420.835938 646.945312 C 462.8125 640.40625 503.855469 628.269531 544.902344 608.664062 C 601.804688 634.804688 626.992188 676.820312 626.992188 744.976562 Z M 626.992188 823.40625 " fill-opacity="1" fill-rule="evenodd"/></g></svg>